<svg width="59" height="60" viewBox="0 0 59 60" fill="none" xmlns="http://www.w3.org/2000/svg">
<path d="M24.8385 46.9386C24.2683 46.9397 23.7158 46.7412 23.2768 46.3774C23.0297 46.1725 22.8255 45.921 22.6758 45.6371C22.5261 45.3532 22.4338 45.0425 22.4044 44.7229C22.3749 44.4033 22.4088 44.0811 22.5041 43.7746C22.5993 43.4681 22.7541 43.1834 22.9596 42.9368L33.8913 29.8579L23.35 16.7545C23.1473 16.5049 22.996 16.2177 22.9046 15.9094C22.8133 15.6011 22.7838 15.2778 22.8178 14.9581C22.8518 14.6384 22.9487 14.3285 23.1028 14.0464C23.257 13.7642 23.4654 13.5153 23.716 13.3139C23.9685 13.0918 24.2642 12.9242 24.5844 12.8218C24.9047 12.7193 25.2428 12.6842 25.5773 12.7185C25.9118 12.7529 26.2356 12.8561 26.5284 13.0215C26.8211 13.1869 27.0766 13.4111 27.2786 13.6799L39.0643 28.3206C39.4232 28.7572 39.6194 29.3049 39.6194 29.8701C39.6194 30.4353 39.4232 30.9829 39.0643 31.4195L26.8638 46.0602C26.619 46.3555 26.308 46.5889 25.9561 46.7415C25.6043 46.8942 25.2213 46.9617 24.8385 46.9386Z" fill="#231F20"/>
</svg>
